<svg width="198" height="58" viewBox="0 0 198 58" fill="none" xmlns="http://www.w3.org/2000/svg">
<g clip-path="url(#clip0_102_29)">
<mask id="path-1-outside-1_102_29" maskUnits="userSpaceOnUse" x="0" y="22" width="165" height="37" fill="black">
<rect fill="white" y="22" width="165" height="37"/>
<path d="M16.207 31.543C15.9785 29.3457 14.1328 28.0801 11.3906 28.0977C8.49023 28.0801 6.76758 29.4863 6.75 31.4023C6.73242 33.5469 9 34.4258 11.1094 34.918L13.5 35.5508C17.2969 36.4297 20.9531 38.4336 20.9531 42.8633C20.9531 47.3281 17.4199 50.3867 11.3203 50.3867C5.39648 50.3867 1.63477 47.5391 1.44141 42.5117H5.94141C6.15234 45.166 8.38477 46.4668 11.2852 46.4844C14.291 46.4668 16.3652 45.0078 16.3828 42.8281C16.3652 40.8242 14.5371 39.9805 11.7773 39.2773L8.89453 38.5391C4.71094 37.4492 2.10938 35.3398 2.10938 31.6836C2.10938 27.1836 6.09961 24.1953 11.4609 24.1953C16.8574 24.1953 20.5312 27.2363 20.6016 31.543H16.207ZM36.7383 41.9844V30.9102H41.2031V50H36.8789V46.625H36.668C35.7891 48.752 33.7852 50.2461 30.9375 50.2461C27.1582 50.2461 24.5566 47.6445 24.5391 43.0742V30.9102H29.0391V42.3711C29.0391 44.7969 30.4805 46.3438 32.6602 46.3438C34.6289 46.3438 36.7383 44.9023 36.7383 41.9844ZM49.9922 38.8203V50H45.4922V30.9102H49.7812V34.1445H50.0273C50.8887 32.0176 52.8398 30.6641 55.6875 30.6641C59.6426 30.6641 62.2441 33.2656 62.2266 37.8359V50H57.7617V38.5391C57.7617 35.9727 56.373 34.4434 54.0352 34.4609C51.6621 34.4434 49.9922 36.043 49.9922 38.8203ZM71.0156 38.8203V50H66.5156V30.9102H70.8047V34.1445H71.0508C71.9121 32.0176 73.8633 30.6641 76.7109 30.6641C80.666 30.6641 83.2676 33.2656 83.25 37.8359V50H78.7852V38.5391C78.7852 35.9727 77.3965 34.4434 75.0586 34.4609C72.6855 34.4434 71.0156 36.043 71.0156 38.8203ZM89.543 57.1719C88.6465 57.1543 87.8027 57.1367 87.2227 57.0664V53.4805C87.7676 53.5332 88.5234 53.5332 89.1211 53.5508C90.2109 53.5332 91.125 53.4629 91.8984 51.4062L92.2852 50.3867L85.3242 30.9102H90.0703L94.5 45.3242H94.7109L99.1406 30.9102H103.887L96.2227 52.3203C95.1328 55.3613 93.1289 57.1543 89.543 57.1719ZM115.453 50V24.5469H125.016C130.852 24.5469 133.963 28.0977 133.98 32.9844C133.963 37.8535 130.816 41.3867 124.945 41.3867H120.023V50H115.453ZM120.023 37.625H124.312C127.758 37.6074 129.305 35.6738 129.305 32.9844C129.305 30.2598 127.758 28.3789 124.312 28.3789H120.023V37.625ZM137.461 50V30.9102H141.961V50H137.461ZM137.145 25.7422C137.145 24.4062 138.322 23.3164 139.746 23.3164C141.17 23.3164 142.348 24.4062 142.348 25.7422C142.348 27.0957 141.17 28.1855 139.746 28.2031C138.322 28.1855 137.145 27.0957 137.145 25.7422ZM154.723 50.3867C148.975 50.3867 145.441 46.5547 145.441 40.5781C145.441 34.6719 149.027 30.6641 154.477 30.6641C159.152 30.6641 163.195 33.5996 163.195 40.2969V41.7031H149.871C149.941 44.9551 151.857 46.8887 154.758 46.8711C156.727 46.8887 158.045 46.0449 158.625 44.9023H163.02C162.211 48.207 159.152 50.3867 154.723 50.3867ZM149.889 38.6445H158.906C158.889 36.043 157.131 34.1445 154.547 34.1445C151.857 34.1445 150.047 36.2188 149.889 38.6445Z"/>
</mask>
<path d="M16.207 31.543C15.9785 29.3457 14.1328 28.0801 11.3906 28.0977C8.49023 28.0801 6.76758 29.4863 6.75 31.4023C6.73242 33.5469 9 34.4258 11.1094 34.918L13.5 35.5508C17.2969 36.4297 20.9531 38.4336 20.9531 42.8633C20.9531 47.3281 17.4199 50.3867 11.3203 50.3867C5.39648 50.3867 1.63477 47.5391 1.44141 42.5117H5.94141C6.15234 45.166 8.38477 46.4668 11.2852 46.4844C14.291 46.4668 16.3652 45.0078 16.3828 42.8281C16.3652 40.8242 14.5371 39.9805 11.7773 39.2773L8.89453 38.5391C4.71094 37.4492 2.10938 35.3398 2.10938 31.6836C2.10938 27.1836 6.09961 24.1953 11.4609 24.1953C16.8574 24.1953 20.5312 27.2363 20.6016 31.543H16.207ZM36.7383 41.9844V30.9102H41.2031V50H36.8789V46.625H36.668C35.7891 48.752 33.7852 50.2461 30.9375 50.2461C27.1582 50.2461 24.5566 47.6445 24.5391 43.0742V30.9102H29.0391V42.3711C29.0391 44.7969 30.4805 46.3438 32.6602 46.3438C34.6289 46.3438 36.7383 44.9023 36.7383 41.9844ZM49.9922 38.8203V50H45.4922V30.9102H49.7812V34.1445H50.0273C50.8887 32.0176 52.8398 30.6641 55.6875 30.6641C59.6426 30.6641 62.2441 33.2656 62.2266 37.8359V50H57.7617V38.5391C57.7617 35.9727 56.373 34.4434 54.0352 34.4609C51.6621 34.4434 49.9922 36.043 49.9922 38.8203ZM71.0156 38.8203V50H66.5156V30.9102H70.8047V34.1445H71.0508C71.9121 32.0176 73.8633 30.6641 76.7109 30.6641C80.666 30.6641 83.2676 33.2656 83.25 37.8359V50H78.7852V38.5391C78.7852 35.9727 77.3965 34.4434 75.0586 34.4609C72.6855 34.4434 71.0156 36.043 71.0156 38.8203ZM89.543 57.1719C88.6465 57.1543 87.8027 57.1367 87.2227 57.0664V53.4805C87.7676 53.5332 88.5234 53.5332 89.1211 53.5508C90.2109 53.5332 91.125 53.4629 91.8984 51.4062L92.2852 50.3867L85.3242 30.9102H90.0703L94.5 45.3242H94.7109L99.1406 30.9102H103.887L96.2227 52.3203C95.1328 55.3613 93.1289 57.1543 89.543 57.1719ZM115.453 50V24.5469H125.016C130.852 24.5469 133.963 28.0977 133.98 32.9844C133.963 37.8535 130.816 41.3867 124.945 41.3867H120.023V50H115.453ZM120.023 37.625H124.312C127.758 37.6074 129.305 35.6738 129.305 32.9844C129.305 30.2598 127.758 28.3789 124.312 28.3789H120.023V37.625ZM137.461 50V30.9102H141.961V50H137.461ZM137.145 25.7422C137.145 24.4062 138.322 23.3164 139.746 23.3164C141.17 23.3164 142.348 24.4062 142.348 25.7422C142.348 27.0957 141.17 28.1855 139.746 28.2031C138.322 28.1855 137.145 27.0957 137.145 25.7422ZM154.723 50.3867C148.975 50.3867 145.441 46.5547 145.441 40.5781C145.441 34.6719 149.027 30.6641 154.477 30.6641C159.152 30.6641 163.195 33.5996 163.195 40.2969V41.7031H149.871C149.941 44.9551 151.857 46.8887 154.758 46.8711C156.727 46.8887 158.045 46.0449 158.625 44.9023H163.02C162.211 48.207 159.152 50.3867 154.723 50.3867ZM149.889 38.6445H158.906C158.889 36.043 157.131 34.1445 154.547 34.1445C151.857 34.1445 150.047 36.2188 149.889 38.6445Z" fill="#EBC7A6"/>
<path d="M16.207 31.543L15.2124 31.6464L15.3056 32.543H16.207V31.543ZM11.3906 28.0977L11.3846 29.0977L11.397 29.0976L11.3906 28.0977ZM6.75 31.4023L5.75004 31.3932L5.75003 31.3941L6.75 31.4023ZM11.1094 34.918L11.3653 33.9513L11.351 33.9475L11.3366 33.9441L11.1094 34.918ZM13.5 35.5508L13.2441 36.5175L13.2592 36.5215L13.2745 36.525L13.5 35.5508ZM1.44141 42.5117V41.5117H0.402205L0.442145 42.5502L1.44141 42.5117ZM5.94141 42.5117L6.93826 42.4325L6.86509 41.5117H5.94141V42.5117ZM11.2852 46.4844L11.2791 47.4844L11.291 47.4844L11.2852 46.4844ZM16.3828 42.8281L17.3828 42.8362L17.3828 42.8278L17.3828 42.8194L16.3828 42.8281ZM11.7773 39.2773L11.5293 40.2461L11.5305 40.2464L11.7773 39.2773ZM8.89453 38.5391L8.64244 39.5068L8.64644 39.5078L8.89453 38.5391ZM20.6016 31.543V32.543H21.618L21.6014 31.5266L20.6016 31.543ZM17.2017 31.4395C17.0581 30.0595 16.3913 28.9316 15.3188 28.1733C14.2696 27.4313 12.9001 27.088 11.3842 27.0977L11.397 29.0976C12.6233 29.0898 13.5478 29.3704 14.1641 29.8062C14.7572 30.2256 15.1274 30.8292 15.2124 31.6464L17.2017 31.4395ZM11.3967 27.0977C9.79437 27.088 8.40886 27.47 7.39424 28.2212C6.3584 28.9881 5.76184 30.1072 5.75004 31.3932L7.74996 31.4115C7.75574 30.7815 8.02929 30.2395 8.58427 29.8286C9.16048 29.402 10.0865 29.0898 11.3846 29.0976L11.3967 27.0977ZM5.75003 31.3941C5.73769 32.8997 6.55899 33.9365 7.57942 34.6132C8.56235 35.265 9.80121 35.6396 10.8821 35.8918L11.3366 33.9441C10.3082 33.7042 9.35855 33.3932 8.68474 32.9464C8.04843 32.5244 7.74473 32.0495 7.74997 31.4105L5.75003 31.3941ZM10.8535 35.8847L13.2441 36.5175L13.7559 34.5841L11.3653 33.9513L10.8535 35.8847ZM13.2745 36.525C15.0981 36.9471 16.7894 37.6199 18.0078 38.6417C19.1897 39.6329 19.9531 40.9691 19.9531 42.8633H21.9531C21.9531 40.3278 20.8884 38.4472 19.293 37.1093C17.7341 35.802 15.6988 35.0333 13.7255 34.5765L13.2745 36.525ZM19.9531 42.8633C19.9531 44.8084 19.1952 46.3966 17.7976 47.5199C16.3779 48.6609 14.2134 49.3867 11.3203 49.3867V51.3867C14.5268 51.3867 17.1787 50.5832 19.0505 49.0788C20.9444 47.5566 21.9531 45.383 21.9531 42.8633H19.9531ZM11.3203 49.3867C8.50656 49.3867 6.32715 48.7095 4.84993 47.5483C3.39794 46.4069 2.52722 44.7237 2.44067 42.4733L0.442145 42.5502C0.54895 45.3271 1.65577 47.5814 3.61393 49.1207C5.54687 50.6401 8.21023 51.3867 11.3203 51.3867V49.3867ZM1.44141 43.5117H5.94141V41.5117H1.44141V43.5117ZM4.94455 42.5909C5.07372 44.2163 5.84056 45.4773 7.03345 46.3076C8.19502 47.1161 9.69534 47.4748 11.2791 47.4844L11.2912 45.4844C9.97458 45.4764 8.9085 45.1759 8.17602 44.6661C7.47487 44.178 7.02003 43.4614 6.93826 42.4325L4.94455 42.5909ZM11.291 47.4844C12.9422 47.4747 14.4292 47.0701 15.5353 46.2812C16.6638 45.4763 17.3711 44.2801 17.3828 42.8362L15.3828 42.8201C15.3769 43.5558 15.0383 44.179 14.3739 44.6529C13.687 45.1428 12.634 45.4765 11.2793 45.4844L11.291 47.4844ZM17.3828 42.8194C17.3706 41.4351 16.6979 40.4397 15.6724 39.7392C14.7114 39.0827 13.4137 38.6623 12.0242 38.3083L11.5305 40.2464C12.9008 40.5955 13.897 40.9485 14.5444 41.3907C15.1273 41.7888 15.3774 42.2173 15.3829 42.8369L17.3828 42.8194ZM12.0254 38.3086L9.14262 37.5703L8.64644 39.5078L11.5293 40.2461L12.0254 38.3086ZM9.14662 37.5714C7.14214 37.0492 5.62699 36.3087 4.62377 35.3506C3.65107 34.4216 3.10938 33.2428 3.10938 31.6836H1.10938C1.10938 33.7806 1.86846 35.4847 3.24244 36.7969C4.5859 38.08 6.46333 38.9391 8.64244 39.5068L9.14662 37.5714ZM3.10938 31.6836C3.10938 29.7585 3.95144 28.1698 5.39225 27.0385C6.85037 25.8935 8.95762 25.1953 11.4609 25.1953V23.1953C8.60293 23.1953 6.0344 23.9913 4.15707 25.4655C2.26243 26.9532 1.10938 29.1086 1.10938 31.6836H3.10938ZM11.4609 25.1953C13.9768 25.1953 16.0084 25.9038 17.3988 27.0309C18.7762 28.1476 19.5715 29.7085 19.6017 31.5593L21.6014 31.5266C21.5613 29.0708 20.4846 26.9579 18.6583 25.4774C16.8451 24.0074 14.3416 23.1953 11.4609 23.1953V25.1953ZM20.6016 30.543H16.207V32.543H20.6016V30.543ZM36.7383 30.9102V29.9102H35.7383V30.9102H36.7383ZM41.2031 30.9102H42.2031V29.9102H41.2031V30.9102ZM41.2031 50V51H42.2031V50H41.2031ZM36.8789 50H35.8789V51H36.8789V50ZM36.8789 46.625H37.8789V45.625H36.8789V46.625ZM36.668 46.625V45.625H35.9992L35.7438 46.2431L36.668 46.625ZM24.5391 43.0742L23.5391 43.0742L23.5391 43.0781L24.5391 43.0742ZM24.5391 30.9102V29.9102H23.5391V30.9102H24.5391ZM29.0391 30.9102H30.0391V29.9102H29.0391V30.9102ZM37.7383 41.9844V30.9102H35.7383V41.9844H37.7383ZM36.7383 31.9102H41.2031V29.9102H36.7383V31.9102ZM40.2031 30.9102V50H42.2031V30.9102H40.2031ZM41.2031 49H36.8789V51H41.2031V49ZM37.8789 50V46.625H35.8789V50H37.8789ZM36.8789 45.625H36.668V47.625H36.8789V45.625ZM35.7438 46.2431C35.0226 47.9884 33.3887 49.2461 30.9375 49.2461V51.2461C34.1816 51.2461 36.5555 49.5155 37.5922 47.0069L35.7438 46.2431ZM30.9375 49.2461C29.2866 49.2461 27.9729 48.6845 27.0633 47.6966C26.1461 46.7006 25.5471 45.1696 25.5391 43.0704L23.5391 43.0781C23.5486 45.5491 24.2592 47.6041 25.592 49.0514C26.9323 50.5069 28.8091 51.2461 30.9375 51.2461V49.2461ZM25.5391 43.0742V30.9102H23.5391V43.0742H25.5391ZM24.5391 31.9102H29.0391V29.9102H24.5391V31.9102ZM28.0391 30.9102V42.3711H30.0391V30.9102H28.0391ZM28.0391 42.3711C28.0391 43.7801 28.4599 45.0322 29.2953 45.943C30.1382 46.8621 31.3224 47.3438 32.6602 47.3438V45.3438C31.8183 45.3438 31.1918 45.052 30.7692 44.5912C30.3389 44.1221 30.0391 43.3879 30.0391 42.3711H28.0391ZM32.6602 47.3438C35.1194 47.3438 37.7383 45.5144 37.7383 41.9844H35.7383C35.7383 44.2902 34.1384 45.3438 32.6602 45.3438V47.3438ZM49.9922 50V51H50.9922V50H49.9922ZM45.4922 50H44.4922V51H45.4922V50ZM45.4922 30.9102V29.9102H44.4922V30.9102H45.4922ZM49.7812 30.9102H50.7812V29.9102H49.7812V30.9102ZM49.7812 34.1445H48.7812V35.1445H49.7812V34.1445ZM50.0273 34.1445V35.1445H50.7013L50.9542 34.5199L50.0273 34.1445ZM62.2266 37.8359L61.2266 37.8321V37.8359H62.2266ZM62.2266 50V51H63.2266V50H62.2266ZM57.7617 50H56.7617V51H57.7617V50ZM54.0352 34.4609L54.0277 35.4609L54.0352 35.461L54.0427 35.4609L54.0352 34.4609ZM48.9922 38.8203V50H50.9922V38.8203H48.9922ZM49.9922 49H45.4922V51H49.9922V49ZM46.4922 50V30.9102H44.4922V50H46.4922ZM45.4922 31.9102H49.7812V29.9102H45.4922V31.9102ZM48.7812 30.9102V34.1445H50.7812V30.9102H48.7812ZM49.7812 35.1445H50.0273V33.1445H49.7812V35.1445ZM50.9542 34.5199C51.6466 32.8102 53.2026 31.6641 55.6875 31.6641V29.6641C52.4771 29.6641 50.1308 31.225 49.1005 33.7692L50.9542 34.5199ZM55.6875 31.6641C57.4394 31.6641 58.7953 32.2343 59.7164 33.2192C60.6437 34.2106 61.2346 35.7345 61.2266 37.8321L63.2266 37.8398C63.2361 35.3671 62.535 33.305 61.1771 31.8531C59.8131 30.3946 57.8907 29.6641 55.6875 29.6641V31.6641ZM61.2266 37.8359V50H63.2266V37.8359H61.2266ZM62.2266 49H57.7617V51H62.2266V49ZM58.7617 50V38.5391H56.7617V50H58.7617ZM58.7617 38.5391C58.7617 37.0831 58.3667 35.7919 57.5139 34.8571C56.6491 33.909 55.4253 33.4505 54.0276 33.461L54.0427 35.4609C54.9829 35.4538 55.6224 35.7511 56.0364 36.2049C56.4624 36.672 56.7617 37.4286 56.7617 38.5391H58.7617ZM54.0426 33.461C52.6233 33.4505 51.3339 33.9284 50.4019 34.9005C49.4733 35.8691 48.9922 37.2309 48.9922 38.8203H50.9922C50.9922 37.6324 51.346 36.8057 51.8456 36.2846C52.3419 35.7669 53.074 35.4538 54.0277 35.4609L54.0426 33.461ZM71.0156 50V51H72.0156V50H71.0156ZM66.5156 50H65.5156V51H66.5156V50ZM66.5156 30.9102V29.9102H65.5156V30.9102H66.5156ZM70.8047 30.9102H71.8047V29.9102H70.8047V30.9102ZM70.8047 34.1445H69.8047V35.1445H70.8047V34.1445ZM71.0508 34.1445V35.1445H71.7247L71.9777 34.5199L71.0508 34.1445ZM83.25 37.8359L82.25 37.8321V37.8359H83.25ZM83.25 50V51H84.25V50H83.25ZM78.7852 50H77.7852V51H78.7852V50ZM75.0586 34.4609L75.0512 35.4609L75.0586 35.461L75.0661 35.4609L75.0586 34.4609ZM70.0156 38.8203V50H72.0156V38.8203H70.0156ZM71.0156 49H66.5156V51H71.0156V49ZM67.5156 50V30.9102H65.5156V50H67.5156ZM66.5156 31.9102H70.8047V29.9102H66.5156V31.9102ZM69.8047 30.9102V34.1445H71.8047V30.9102H69.8047ZM70.8047 35.1445H71.0508V33.1445H70.8047V35.1445ZM71.9777 34.5199C72.67 32.8102 74.2261 31.6641 76.7109 31.6641V29.6641C73.5005 29.6641 71.1542 31.225 70.1239 33.7692L71.9777 34.5199ZM76.7109 31.6641C78.4628 31.6641 79.8187 32.2343 80.7399 33.2192C81.6671 34.2106 82.2581 35.7345 82.25 37.8321L84.25 37.8398C84.2595 35.3671 83.5585 33.305 82.2006 31.8531C80.8366 30.3946 78.9141 29.6641 76.7109 29.6641V31.6641ZM82.25 37.8359V50H84.25V37.8359H82.25ZM83.25 49H78.7852V51H83.25V49ZM79.7852 50V38.5391H77.7852V50H79.7852ZM79.7852 38.5391C79.7852 37.0831 79.3901 35.7919 78.5374 34.8571C77.6725 33.909 76.4488 33.4505 75.0511 33.461L75.0661 35.4609C76.0063 35.4538 76.6458 35.7511 77.0598 36.2049C77.4858 36.672 77.7852 37.4286 77.7852 38.5391H79.7852ZM75.066 33.461C73.6467 33.4505 72.3573 33.9284 71.4254 34.9005C70.4968 35.8691 70.0156 37.2309 70.0156 38.8203H72.0156C72.0156 37.6324 72.3695 36.8057 72.8691 36.2846C73.3654 35.7669 74.0974 35.4538 75.0512 35.4609L75.066 33.461ZM89.543 57.1719L89.5234 58.1717L89.5356 58.1719L89.5479 58.1719L89.543 57.1719ZM87.2227 57.0664H86.2227V57.9525L87.1023 58.0591L87.2227 57.0664ZM87.2227 53.4805L87.319 52.4851L86.2227 52.379V53.4805H87.2227ZM89.1211 53.5508L89.0917 54.5503L89.1145 54.551L89.1372 54.5507L89.1211 53.5508ZM91.8984 51.4062L90.9634 51.0516L90.9624 51.0543L91.8984 51.4062ZM92.2852 50.3867L93.2202 50.7414L93.3508 50.397L93.2268 50.0502L92.2852 50.3867ZM85.3242 30.9102V29.9102H83.9049L84.3826 31.2467L85.3242 30.9102ZM90.0703 30.9102L91.0262 30.6164L90.8092 29.9102H90.0703V30.9102ZM94.5 45.3242L93.5441 45.618L93.7612 46.3242H94.5V45.3242ZM94.7109 45.3242V46.3242H95.4498L95.6668 45.618L94.7109 45.3242ZM99.1406 30.9102V29.9102H98.4018L98.1847 30.6164L99.1406 30.9102ZM103.887 30.9102L104.828 31.2472L105.307 29.9102H103.887V30.9102ZM96.2227 52.3203L97.164 52.6577L97.1642 52.6573L96.2227 52.3203ZM89.5626 56.1721C88.6452 56.1541 87.861 56.1365 87.343 56.0737L87.1023 58.0591C87.7444 58.137 88.6478 58.1545 89.5234 58.1717L89.5626 56.1721ZM88.2227 57.0664V53.4805H86.2227V57.0664H88.2227ZM87.1263 54.4758C87.7156 54.5328 88.5467 54.5343 89.0917 54.5503L89.1505 52.5512C88.5002 52.5321 87.8195 52.5336 87.319 52.4851L87.1263 54.4758ZM89.1372 54.5507C89.6643 54.5421 90.4237 54.5322 91.1429 54.1007C91.8786 53.6592 92.4094 52.8884 92.8344 51.7582L90.9624 51.0543C90.614 51.9807 90.3011 52.2734 90.1139 52.3857C89.9103 52.5078 89.6677 52.5418 89.105 52.5509L89.1372 54.5507ZM92.8334 51.7609L93.2202 50.7414L91.3502 50.0321L90.9634 51.0516L92.8334 51.7609ZM93.2268 50.0502L86.2659 30.5736L84.3826 31.2467L91.3435 50.7233L93.2268 50.0502ZM85.3242 31.9102H90.0703V29.9102H85.3242V31.9102ZM89.1144 31.2039L93.5441 45.618L95.4559 45.0305L91.0262 30.6164L89.1144 31.2039ZM94.5 46.3242H94.7109V44.3242H94.5V46.3242ZM95.6668 45.618L100.097 31.2039L98.1847 30.6164L93.7551 45.0305L95.6668 45.618ZM99.1406 31.9102H103.887V29.9102H99.1406V31.9102ZM102.945 30.5731L95.2812 51.9833L97.1642 52.6573L104.828 31.2472L102.945 30.5731ZM95.2813 51.9829C94.7796 53.3827 94.0996 54.4059 93.2112 55.0857C92.3315 55.7588 91.1582 56.1639 89.5381 56.1719L89.5479 58.1719C91.5137 58.1622 93.1353 57.6621 94.4265 56.6741C95.7089 55.6928 96.5758 54.2989 97.164 52.6577L95.2813 51.9829ZM115.453 50H114.453V51H115.453V50ZM115.453 24.5469V23.5469H114.453V24.5469H115.453ZM133.98 32.9844L134.98 32.988L134.98 32.9808L133.98 32.9844ZM120.023 41.3867V40.3867H119.023V41.3867H120.023ZM120.023 50V51H121.023V50H120.023ZM120.023 37.625H119.023V38.625H120.023V37.625ZM124.312 37.625L124.313 38.625L124.318 38.625L124.312 37.625ZM120.023 28.3789V27.3789H119.023V28.3789H120.023ZM116.453 50V24.5469H114.453V50H116.453ZM115.453 25.5469H125.016V23.5469H115.453V25.5469ZM125.016 25.5469C127.728 25.5469 129.691 26.3674 130.975 27.6428C132.262 28.9203 132.972 30.757 132.98 32.988L134.98 32.9808C134.971 30.325 134.117 27.943 132.384 26.2234C130.65 24.5017 128.14 23.5469 125.016 23.5469V25.5469ZM132.98 32.9808C132.972 35.1986 132.256 37.0252 130.958 38.2972C129.661 39.5685 127.678 40.3867 124.945 40.3867V42.3867C128.084 42.3867 130.61 41.4383 132.358 39.7258C134.105 38.0138 134.971 35.6393 134.98 32.988L132.98 32.9808ZM124.945 40.3867H120.023V42.3867H124.945V40.3867ZM119.023 41.3867V50H121.023V41.3867H119.023ZM120.023 49H115.453V51H120.023V49ZM120.023 38.625H124.312V36.625H120.023V38.625ZM124.318 38.625C126.225 38.6153 127.756 38.0711 128.81 37.0118C129.861 35.9547 130.305 34.5169 130.305 32.9844H128.305C128.305 34.1413 127.975 35.0151 127.392 35.6014C126.81 36.1857 125.846 36.6172 124.307 36.625L124.318 38.625ZM130.305 32.9844C130.305 31.4372 129.863 29.9992 128.805 28.9499C127.747 27.9004 126.213 27.3789 124.312 27.3789V29.3789C125.858 29.3789 126.82 29.7979 127.396 30.3699C127.973 30.9422 128.305 31.8069 128.305 32.9844H130.305ZM124.312 27.3789H120.023V29.3789H124.312V27.3789ZM119.023 28.3789V37.625H121.023V28.3789H119.023ZM137.461 50H136.461V51H137.461V50ZM137.461 30.9102V29.9102H136.461V30.9102H137.461ZM141.961 30.9102H142.961V29.9102H141.961V30.9102ZM141.961 50V51H142.961V50H141.961ZM139.746 28.2031L139.734 29.203L139.746 29.2032L139.758 29.203L139.746 28.2031ZM138.461 50V30.9102H136.461V50H138.461ZM137.461 31.9102H141.961V29.9102H137.461V31.9102ZM140.961 30.9102V50H142.961V30.9102H140.961ZM141.961 49H137.461V51H141.961V49ZM138.145 25.7422C138.145 25.0254 138.805 24.3164 139.746 24.3164V22.3164C137.839 22.3164 136.145 23.7871 136.145 25.7422H138.145ZM139.746 24.3164C140.687 24.3164 141.348 25.0254 141.348 25.7422H143.348C143.348 23.7871 141.653 22.3164 139.746 22.3164V24.3164ZM141.348 25.7422C141.348 26.4796 140.681 27.1915 139.734 27.2032L139.758 29.203C141.658 29.1796 143.348 27.7118 143.348 25.7422H141.348ZM139.758 27.2032C138.811 27.1915 138.145 26.4796 138.145 25.7422H136.145C136.145 27.7118 137.834 29.1796 139.734 29.203L139.758 27.2032ZM163.195 41.7031V42.7031H164.195V41.7031H163.195ZM149.871 41.7031V40.7031H148.849L148.871 41.7247L149.871 41.7031ZM154.758 46.8711L154.767 45.8711L154.759 45.8711L154.752 45.8711L154.758 46.8711ZM158.625 44.9023V43.9023H158.011L157.733 44.4497L158.625 44.9023ZM163.02 44.9023L163.991 45.14L164.294 43.9023H163.02V44.9023ZM149.889 38.6445L148.891 38.5795L148.821 39.6445H149.889V38.6445ZM158.906 38.6445V39.6445H159.913L159.906 38.6378L158.906 38.6445ZM154.723 49.3867C152.079 49.3867 150.039 48.512 148.655 47.0389C147.265 45.5586 146.441 43.3715 146.441 40.5781H144.441C144.441 43.7613 145.385 46.4785 147.198 48.4083C149.017 50.3455 151.618 51.3867 154.723 51.3867V49.3867ZM146.441 40.5781C146.441 37.8254 147.275 35.6015 148.656 34.0779C150.029 32.5634 152.011 31.6641 154.477 31.6641V29.6641C151.493 29.6641 148.957 30.7686 147.175 32.7346C145.401 34.6914 144.441 37.4246 144.441 40.5781H146.441ZM154.477 31.6641C156.609 31.6641 158.516 32.331 159.888 33.6815C161.252 35.0252 162.195 37.1542 162.195 40.2969H164.195C164.195 36.7423 163.117 34.0549 161.291 32.2565C159.472 30.4649 157.02 29.6641 154.477 29.6641V31.6641ZM162.195 40.2969V41.7031H164.195V40.2969H162.195ZM163.195 40.7031H149.871V42.7031H163.195V40.7031ZM148.871 41.7247C148.911 43.5405 149.47 45.0971 150.531 46.2049C151.599 47.3199 153.082 47.8813 154.764 47.8711L154.752 45.8711C153.534 45.8785 152.608 45.4819 151.975 44.8214C151.336 44.1539 150.902 43.1177 150.871 41.6815L148.871 41.7247ZM154.749 47.8711C157.017 47.8913 158.731 46.9022 159.517 45.355L157.733 44.4497C157.359 45.1877 156.436 45.886 154.767 45.8711L154.749 47.8711ZM158.625 45.9023H163.02V43.9023H158.625V45.9023ZM162.048 44.6647C161.377 47.4092 158.819 49.3867 154.723 49.3867V51.3867C159.486 51.3867 163.045 49.0048 163.991 45.14L162.048 44.6647ZM149.889 39.6445H158.906V37.6445H149.889V39.6445ZM159.906 38.6378C159.896 37.1115 159.372 35.7324 158.412 34.7279C157.447 33.7187 156.095 33.1445 154.547 33.1445V35.1445C155.583 35.1445 156.402 35.5196 156.966 36.11C157.535 36.7051 157.899 37.576 157.906 38.6513L159.906 38.6378ZM154.547 33.1445C151.258 33.1445 149.078 35.7035 148.891 38.5795L150.887 38.7096C151.015 36.734 152.457 35.1445 154.547 35.1445V33.1445Z" fill="black" mask="url(#path-1-outside-1_102_29)"/>
<path fill-rule="evenodd" clip-rule="evenodd" d="M150.953 30.0779C150.333 27.9906 150 25.7833 150 23.5C150 10.5213 160.745 0 174 0C187.255 0 198 10.5213 198 23.5C198 36.4787 187.255 47 174 47C172.542 47 171.114 46.8726 169.727 46.6287L174.207 23.5306L150.953 30.0779Z" fill="#F6B22C" fill-opacity="0.51"/>
</g>
<defs>
<clipPath id="clip0_102_29">
<rect width="198" height="58" fill="white"/>
</clipPath>
</defs>
</svg>
