<svg width="246" height="111" viewBox="0 0 246 111" fill="none" xmlns="http://www.w3.org/2000/svg">
<mask id="path-1-outside-1_102_29" maskUnits="userSpaceOnUse" x="25" y="45" width="165" height="37" fill="black">
<rect fill="white" x="25" y="45" width="165" height="37"/>
<path d="M41.207 54.543C40.9785 52.3457 39.1328 51.0801 36.3906 51.0977C33.4902 51.0801 31.7676 52.4863 31.75 54.4023C31.7324 56.5469 34 57.4258 36.1094 57.918L38.5 58.5508C42.2969 59.4297 45.9531 61.4336 45.9531 65.8633C45.9531 70.3281 42.4199 73.3867 36.3203 73.3867C30.3965 73.3867 26.6348 70.5391 26.4414 65.5117H30.9414C31.1523 68.166 33.3848 69.4668 36.2852 69.4844C39.291 69.4668 41.3652 68.0078 41.3828 65.8281C41.3652 63.8242 39.5371 62.9805 36.7773 62.2773L33.8945 61.5391C29.7109 60.4492 27.1094 58.3398 27.1094 54.6836C27.1094 50.1836 31.0996 47.1953 36.4609 47.1953C41.8574 47.1953 45.5312 50.2363 45.6016 54.543H41.207ZM61.7383 64.9844V53.9102H66.2031V73H61.8789V69.625H61.668C60.7891 71.752 58.7852 73.2461 55.9375 73.2461C52.1582 73.2461 49.5566 70.6445 49.5391 66.0742V53.9102H54.0391V65.3711C54.0391 67.7969 55.4805 69.3438 57.6602 69.3438C59.6289 69.3438 61.7383 67.9023 61.7383 64.9844ZM74.9922 61.8203V73H70.4922V53.9102H74.7812V57.1445H75.0273C75.8887 55.0176 77.8398 53.6641 80.6875 53.6641C84.6426 53.6641 87.2441 56.2656 87.2266 60.8359V73H82.7617V61.5391C82.7617 58.9727 81.373 57.4434 79.0352 57.4609C76.6621 57.4434 74.9922 59.043 74.9922 61.8203ZM96.0156 61.8203V73H91.5156V53.9102H95.8047V57.1445H96.0508C96.9121 55.0176 98.8633 53.6641 101.711 53.6641C105.666 53.6641 108.268 56.2656 108.25 60.8359V73H103.785V61.5391C103.785 58.9727 102.396 57.4434 100.059 57.4609C97.6855 57.4434 96.0156 59.043 96.0156 61.8203ZM114.543 80.1719C113.646 80.1543 112.803 80.1367 112.223 80.0664V76.4805C112.768 76.5332 113.523 76.5332 114.121 76.5508C115.211 76.5332 116.125 76.4629 116.898 74.4062L117.285 73.3867L110.324 53.9102H115.07L119.5 68.3242H119.711L124.141 53.9102H128.887L121.223 75.3203C120.133 78.3613 118.129 80.1543 114.543 80.1719ZM140.453 73V47.5469H150.016C155.852 47.5469 158.963 51.0977 158.98 55.9844C158.963 60.8535 155.816 64.3867 149.945 64.3867H145.023V73H140.453ZM145.023 60.625H149.312C152.758 60.6074 154.305 58.6738 154.305 55.9844C154.305 53.2598 152.758 51.3789 149.312 51.3789H145.023V60.625ZM162.461 73V53.9102H166.961V73H162.461ZM162.145 48.7422C162.145 47.4062 163.322 46.3164 164.746 46.3164C166.17 46.3164 167.348 47.4062 167.348 48.7422C167.348 50.0957 166.17 51.1855 164.746 51.2031C163.322 51.1855 162.145 50.0957 162.145 48.7422ZM179.723 73.3867C173.975 73.3867 170.441 69.5547 170.441 63.5781C170.441 57.6719 174.027 53.6641 179.477 53.6641C184.152 53.6641 188.195 56.5996 188.195 63.2969V64.7031H174.871C174.941 67.9551 176.857 69.8887 179.758 69.8711C181.727 69.8887 183.045 69.0449 183.625 67.9023H188.02C187.211 71.207 184.152 73.3867 179.723 73.3867ZM174.889 61.6445H183.906C183.889 59.043 182.131 57.1445 179.547 57.1445C176.857 57.1445 175.047 59.2188 174.889 61.6445Z"/>
</mask>
<path d="M41.207 54.543C40.9785 52.3457 39.1328 51.0801 36.3906 51.0977C33.4902 51.0801 31.7676 52.4863 31.75 54.4023C31.7324 56.5469 34 57.4258 36.1094 57.918L38.5 58.5508C42.2969 59.4297 45.9531 61.4336 45.9531 65.8633C45.9531 70.3281 42.4199 73.3867 36.3203 73.3867C30.3965 73.3867 26.6348 70.5391 26.4414 65.5117H30.9414C31.1523 68.166 33.3848 69.4668 36.2852 69.4844C39.291 69.4668 41.3652 68.0078 41.3828 65.8281C41.3652 63.8242 39.5371 62.9805 36.7773 62.2773L33.8945 61.5391C29.7109 60.4492 27.1094 58.3398 27.1094 54.6836C27.1094 50.1836 31.0996 47.1953 36.4609 47.1953C41.8574 47.1953 45.5312 50.2363 45.6016 54.543H41.207ZM61.7383 64.9844V53.9102H66.2031V73H61.8789V69.625H61.668C60.7891 71.752 58.7852 73.2461 55.9375 73.2461C52.1582 73.2461 49.5566 70.6445 49.5391 66.0742V53.9102H54.0391V65.3711C54.0391 67.7969 55.4805 69.3438 57.6602 69.3438C59.6289 69.3438 61.7383 67.9023 61.7383 64.9844ZM74.9922 61.8203V73H70.4922V53.9102H74.7812V57.1445H75.0273C75.8887 55.0176 77.8398 53.6641 80.6875 53.6641C84.6426 53.6641 87.2441 56.2656 87.2266 60.8359V73H82.7617V61.5391C82.7617 58.9727 81.373 57.4434 79.0352 57.4609C76.6621 57.4434 74.9922 59.043 74.9922 61.8203ZM96.0156 61.8203V73H91.5156V53.9102H95.8047V57.1445H96.0508C96.9121 55.0176 98.8633 53.6641 101.711 53.6641C105.666 53.6641 108.268 56.2656 108.25 60.8359V73H103.785V61.5391C103.785 58.9727 102.396 57.4434 100.059 57.4609C97.6855 57.4434 96.0156 59.043 96.0156 61.8203ZM114.543 80.1719C113.646 80.1543 112.803 80.1367 112.223 80.0664V76.4805C112.768 76.5332 113.523 76.5332 114.121 76.5508C115.211 76.5332 116.125 76.4629 116.898 74.4062L117.285 73.3867L110.324 53.9102H115.07L119.5 68.3242H119.711L124.141 53.9102H128.887L121.223 75.3203C120.133 78.3613 118.129 80.1543 114.543 80.1719ZM140.453 73V47.5469H150.016C155.852 47.5469 158.963 51.0977 158.98 55.9844C158.963 60.8535 155.816 64.3867 149.945 64.3867H145.023V73H140.453ZM145.023 60.625H149.312C152.758 60.6074 154.305 58.6738 154.305 55.9844C154.305 53.2598 152.758 51.3789 149.312 51.3789H145.023V60.625ZM162.461 73V53.9102H166.961V73H162.461ZM162.145 48.7422C162.145 47.4062 163.322 46.3164 164.746 46.3164C166.17 46.3164 167.348 47.4062 167.348 48.7422C167.348 50.0957 166.17 51.1855 164.746 51.2031C163.322 51.1855 162.145 50.0957 162.145 48.7422ZM179.723 73.3867C173.975 73.3867 170.441 69.5547 170.441 63.5781C170.441 57.6719 174.027 53.6641 179.477 53.6641C184.152 53.6641 188.195 56.5996 188.195 63.2969V64.7031H174.871C174.941 67.9551 176.857 69.8887 179.758 69.8711C181.727 69.8887 183.045 69.0449 183.625 67.9023H188.02C187.211 71.207 184.152 73.3867 179.723 73.3867ZM174.889 61.6445H183.906C183.889 59.043 182.131 57.1445 179.547 57.1445C176.857 57.1445 175.047 59.2188 174.889 61.6445Z" fill="#D9AE87"/>
<path d="M41.207 54.543L40.2124 54.6464L40.3056 55.543H41.207V54.543ZM36.3906 51.0977L36.3846 52.0977L36.397 52.0976L36.3906 51.0977ZM31.75 54.4023L30.75 54.3932L30.75 54.3941L31.75 54.4023ZM36.1094 57.918L36.3653 56.9513L36.351 56.9475L36.3366 56.9441L36.1094 57.918ZM38.5 58.5508L38.2441 59.5175L38.2592 59.5215L38.2745 59.525L38.5 58.5508ZM26.4414 65.5117V64.5117H25.4022L25.4421 65.5502L26.4414 65.5117ZM30.9414 65.5117L31.9383 65.4325L31.8651 64.5117H30.9414V65.5117ZM36.2852 69.4844L36.2791 70.4844L36.291 70.4844L36.2852 69.4844ZM41.3828 65.8281L42.3828 65.8362L42.3828 65.8278L42.3828 65.8194L41.3828 65.8281ZM36.7773 62.2773L36.5293 63.2461L36.5305 63.2464L36.7773 62.2773ZM33.8945 61.5391L33.6424 62.5068L33.6464 62.5078L33.8945 61.5391ZM45.6016 54.543V55.543H46.618L46.6014 54.5266L45.6016 54.543ZM42.2017 54.4395C42.0581 53.0595 41.3913 51.9316 40.3188 51.1733C39.2696 50.4313 37.9001 50.088 36.3842 50.0977L36.397 52.0976C37.6233 52.0898 38.5478 52.3704 39.1641 52.8062C39.7572 53.2256 40.1274 53.8292 40.2124 54.6464L42.2017 54.4395ZM36.3967 50.0977C34.7944 50.088 33.4089 50.47 32.3942 51.2212C31.3584 51.9881 30.7618 53.1072 30.75 54.3932L32.75 54.4115C32.7557 53.7815 33.0293 53.2395 33.5843 52.8286C34.1605 52.402 35.0865 52.0898 36.3846 52.0976L36.3967 50.0977ZM30.75 54.3941C30.7377 55.8997 31.559 56.9365 32.5794 57.6132C33.5624 58.265 34.8012 58.6396 35.8821 58.8918L36.3366 56.9441C35.3082 56.7042 34.3585 56.3932 33.6847 55.9464C33.0484 55.5244 32.7447 55.0495 32.75 54.4105L30.75 54.3941ZM35.8535 58.8847L38.2441 59.5175L38.7559 57.5841L36.3653 56.9513L35.8535 58.8847ZM38.2745 59.525C40.0981 59.9471 41.7894 60.6199 43.0078 61.6417C44.1897 62.6329 44.9531 63.9691 44.9531 65.8633H46.9531C46.9531 63.3278 45.8884 61.4472 44.293 60.1093C42.7341 58.802 40.6988 58.0333 38.7255 57.5765L38.2745 59.525ZM44.9531 65.8633C44.9531 67.8084 44.1952 69.3966 42.7976 70.5199C41.3779 71.6609 39.2134 72.3867 36.3203 72.3867V74.3867C39.5268 74.3867 42.1787 73.5832 44.0505 72.0788C45.9444 70.5566 46.9531 68.383 46.9531 65.8633H44.9531ZM36.3203 72.3867C33.5066 72.3867 31.3272 71.7095 29.8499 70.5483C28.3979 69.4069 27.5272 67.7237 27.4407 65.4733L25.4421 65.5502C25.549 68.3271 26.6558 70.5814 28.6139 72.1207C30.5469 73.6401 33.2102 74.3867 36.3203 74.3867V72.3867ZM26.4414 66.5117H30.9414V64.5117H26.4414V66.5117ZM29.9445 65.5909C30.0737 67.2163 30.8406 68.4773 32.0334 69.3076C33.195 70.1161 34.6953 70.4748 36.2791 70.4844L36.2912 68.4844C34.9746 68.4764 33.9085 68.1759 33.176 67.6661C32.4749 67.178 32.02 66.4614 31.9383 65.4325L29.9445 65.5909ZM36.291 70.4844C37.9422 70.4747 39.4292 70.0701 40.5353 69.2812C41.6638 68.4763 42.3711 67.2801 42.3828 65.8362L40.3828 65.8201C40.3769 66.5558 40.0383 67.179 39.3739 67.6529C38.687 68.1428 37.634 68.4765 36.2793 68.4844L36.291 70.4844ZM42.3828 65.8194C42.3706 64.4351 41.6979 63.4397 40.6724 62.7392C39.7114 62.0827 38.4137 61.6623 37.0242 61.3083L36.5305 63.2464C37.9008 63.5955 38.897 63.9485 39.5444 64.3907C40.1273 64.7888 40.3774 65.2173 40.3829 65.8369L42.3828 65.8194ZM37.0254 61.3086L34.1426 60.5703L33.6464 62.5078L36.5293 63.2461L37.0254 61.3086ZM34.1466 60.5714C32.1421 60.0492 30.627 59.3087 29.6238 58.3506C28.6511 57.4216 28.1094 56.2428 28.1094 54.6836H26.1094C26.1094 56.7806 26.8685 58.4847 28.2424 59.7969C29.5859 61.08 31.4633 61.9391 33.6424 62.5068L34.1466 60.5714ZM28.1094 54.6836C28.1094 52.7585 28.9514 51.1698 30.3923 50.0385C31.8504 48.8935 33.9576 48.1953 36.4609 48.1953V46.1953C33.6029 46.1953 31.0344 46.9913 29.1571 48.4655C27.2624 49.9532 26.1094 52.1086 26.1094 54.6836H28.1094ZM36.4609 48.1953C38.9768 48.1953 41.0084 48.9038 42.3988 50.0309C43.7762 51.1476 44.5715 52.7085 44.6017 54.5593L46.6014 54.5266C46.5613 52.0708 45.4846 49.9579 43.6583 48.4774C41.8451 47.0074 39.3416 46.1953 36.4609 46.1953V48.1953ZM45.6016 53.543H41.207V55.543H45.6016V53.543ZM61.7383 53.9102V52.9102H60.7383V53.9102H61.7383ZM66.2031 53.9102H67.2031V52.9102H66.2031V53.9102ZM66.2031 73V74H67.2031V73H66.2031ZM61.8789 73H60.8789V74H61.8789V73ZM61.8789 69.625H62.8789V68.625H61.8789V69.625ZM61.668 69.625V68.625H60.9992L60.7438 69.2431L61.668 69.625ZM49.5391 66.0742H48.5391L48.5391 66.0781L49.5391 66.0742ZM49.5391 53.9102V52.9102H48.5391V53.9102H49.5391ZM54.0391 53.9102H55.0391V52.9102H54.0391V53.9102ZM62.7383 64.9844V53.9102H60.7383V64.9844H62.7383ZM61.7383 54.9102H66.2031V52.9102H61.7383V54.9102ZM65.2031 53.9102V73H67.2031V53.9102H65.2031ZM66.2031 72H61.8789V74H66.2031V72ZM62.8789 73V69.625H60.8789V73H62.8789ZM61.8789 68.625H61.668V70.625H61.8789V68.625ZM60.7438 69.2431C60.0226 70.9884 58.3887 72.2461 55.9375 72.2461V74.2461C59.1816 74.2461 61.5555 72.5155 62.5922 70.0069L60.7438 69.2431ZM55.9375 72.2461C54.2866 72.2461 52.9729 71.6845 52.0633 70.6966C51.1461 69.7006 50.5471 68.1696 50.5391 66.0704L48.5391 66.0781C48.5486 68.5491 49.2592 70.604 50.592 72.0514C51.9323 73.5069 53.8091 74.2461 55.9375 74.2461V72.2461ZM50.5391 66.0742V53.9102H48.5391V66.0742H50.5391ZM49.5391 54.9102H54.0391V52.9102H49.5391V54.9102ZM53.0391 53.9102V65.3711H55.0391V53.9102H53.0391ZM53.0391 65.3711C53.0391 66.7801 53.4599 68.0322 54.2953 68.943C55.1382 69.8621 56.3224 70.3438 57.6602 70.3438V68.3438C56.8183 68.3438 56.1918 68.052 55.7692 67.5912C55.3389 67.1221 55.0391 66.3879 55.0391 65.3711H53.0391ZM57.6602 70.3438C60.1194 70.3438 62.7383 68.5144 62.7383 64.9844H60.7383C60.7383 67.2902 59.1384 68.3438 57.6602 68.3438V70.3438ZM74.9922 73V74H75.9922V73H74.9922ZM70.4922 73H69.4922V74H70.4922V73ZM70.4922 53.9102V52.9102H69.4922V53.9102H70.4922ZM74.7812 53.9102H75.7812V52.9102H74.7812V53.9102ZM74.7812 57.1445H73.7812V58.1445H74.7812V57.1445ZM75.0273 57.1445V58.1445H75.7013L75.9542 57.5199L75.0273 57.1445ZM87.2266 60.8359L86.2266 60.8321V60.8359H87.2266ZM87.2266 73V74H88.2266V73H87.2266ZM82.7617 73H81.7617V74H82.7617V73ZM79.0352 57.4609L79.0277 58.4609L79.0352 58.461L79.0427 58.4609L79.0352 57.4609ZM73.9922 61.8203V73H75.9922V61.8203H73.9922ZM74.9922 72H70.4922V74H74.9922V72ZM71.4922 73V53.9102H69.4922V73H71.4922ZM70.4922 54.9102H74.7812V52.9102H70.4922V54.9102ZM73.7812 53.9102V57.1445H75.7812V53.9102H73.7812ZM74.7812 58.1445H75.0273V56.1445H74.7812V58.1445ZM75.9542 57.5199C76.6466 55.8102 78.2026 54.6641 80.6875 54.6641V52.6641C77.4771 52.6641 75.1308 54.225 74.1005 56.7692L75.9542 57.5199ZM80.6875 54.6641C82.4394 54.6641 83.7953 55.2343 84.7164 56.2192C85.6437 57.2106 86.2346 58.7345 86.2266 60.8321L88.2266 60.8398C88.2361 58.3671 87.535 56.305 86.1771 54.8531C84.8131 53.3946 82.8907 52.6641 80.6875 52.6641V54.6641ZM86.2266 60.8359V73H88.2266V60.8359H86.2266ZM87.2266 72H82.7617V74H87.2266V72ZM83.7617 73V61.5391H81.7617V73H83.7617ZM83.7617 61.5391C83.7617 60.0831 83.3667 58.7919 82.5139 57.8571C81.6491 56.909 80.4253 56.4505 79.0276 56.461L79.0427 58.4609C79.9829 58.4538 80.6224 58.7511 81.0364 59.2049C81.4624 59.672 81.7617 60.4286 81.7617 61.5391H83.7617ZM79.0426 56.461C77.6233 56.4505 76.3339 56.9284 75.4019 57.9005C74.4733 58.8691 73.9922 60.2309 73.9922 61.8203H75.9922C75.9922 60.6324 76.346 59.8057 76.8456 59.2846C77.3419 58.7669 78.074 58.4538 79.0277 58.4609L79.0426 56.461ZM96.0156 73V74H97.0156V73H96.0156ZM91.5156 73H90.5156V74H91.5156V73ZM91.5156 53.9102V52.9102H90.5156V53.9102H91.5156ZM95.8047 53.9102H96.8047V52.9102H95.8047V53.9102ZM95.8047 57.1445H94.8047V58.1445H95.8047V57.1445ZM96.0508 57.1445V58.1445H96.7247L96.9777 57.5199L96.0508 57.1445ZM108.25 60.8359L107.25 60.8321V60.8359H108.25ZM108.25 73V74H109.25V73H108.25ZM103.785 73H102.785V74H103.785V73ZM100.059 57.4609L100.051 58.4609L100.059 58.461L100.066 58.4609L100.059 57.4609ZM95.0156 61.8203V73H97.0156V61.8203H95.0156ZM96.0156 72H91.5156V74H96.0156V72ZM92.5156 73V53.9102H90.5156V73H92.5156ZM91.5156 54.9102H95.8047V52.9102H91.5156V54.9102ZM94.8047 53.9102V57.1445H96.8047V53.9102H94.8047ZM95.8047 58.1445H96.0508V56.1445H95.8047V58.1445ZM96.9777 57.5199C97.67 55.8102 99.2261 54.6641 101.711 54.6641V52.6641C98.5005 52.6641 96.1542 54.225 95.1239 56.7692L96.9777 57.5199ZM101.711 54.6641C103.463 54.6641 104.819 55.2343 105.74 56.2192C106.667 57.2106 107.258 58.7345 107.25 60.8321L109.25 60.8398C109.26 58.3671 108.558 56.305 107.201 54.8531C105.837 53.3946 103.914 52.6641 101.711 52.6641V54.6641ZM107.25 60.8359V73H109.25V60.8359H107.25ZM108.25 72H103.785V74H108.25V72ZM104.785 73V61.5391H102.785V73H104.785ZM104.785 61.5391C104.785 60.0831 104.39 58.7919 103.537 57.8571C102.673 56.909 101.449 56.4505 100.051 56.461L100.066 58.4609C101.006 58.4538 101.646 58.7511 102.06 59.2049C102.486 59.672 102.785 60.4286 102.785 61.5391H104.785ZM100.066 56.461C98.6467 56.4505 97.3573 56.9284 96.4254 57.9005C95.4968 58.8691 95.0156 60.2309 95.0156 61.8203H97.0156C97.0156 60.6324 97.3695 59.8057 97.8691 59.2846C98.3654 58.7669 99.0974 58.4538 100.051 58.4609L100.066 56.461ZM114.543 80.1719L114.523 81.1717L114.536 81.1719L114.548 81.1719L114.543 80.1719ZM112.223 80.0664H111.223V80.9525L112.102 81.0591L112.223 80.0664ZM112.223 76.4805L112.319 75.4851L111.223 75.379V76.4805H112.223ZM114.121 76.5508L114.092 77.5504L114.114 77.551L114.137 77.5507L114.121 76.5508ZM116.898 74.4062L115.963 74.0516L115.962 74.0542L116.898 74.4062ZM117.285 73.3867L118.22 73.7414L118.351 73.397L118.227 73.0502L117.285 73.3867ZM110.324 53.9102V52.9102H108.905L109.383 54.2467L110.324 53.9102ZM115.07 53.9102L116.026 53.6164L115.809 52.9102H115.07V53.9102ZM119.5 68.3242L118.544 68.618L118.761 69.3242H119.5V68.3242ZM119.711 68.3242V69.3242H120.45L120.667 68.618L119.711 68.3242ZM124.141 53.9102V52.9102H123.402L123.185 53.6164L124.141 53.9102ZM128.887 53.9102L129.828 54.2472L130.307 52.9102H128.887V53.9102ZM121.223 75.3203L122.164 75.6577L122.164 75.6573L121.223 75.3203ZM114.563 79.1721C113.645 79.1541 112.861 79.1365 112.343 79.0737L112.102 81.0591C112.744 81.137 113.648 81.1545 114.523 81.1717L114.563 79.1721ZM113.223 80.0664V76.4805H111.223V80.0664H113.223ZM112.126 77.4758C112.716 77.5328 113.547 77.5343 114.092 77.5504L114.15 75.5512C113.5 75.5321 112.82 75.5336 112.319 75.4851L112.126 77.4758ZM114.137 77.5507C114.664 77.5421 115.424 77.5322 116.143 77.1007C116.879 76.6592 117.409 75.8884 117.834 74.7583L115.962 74.0542C115.614 74.9807 115.301 75.2734 115.114 75.3857C114.91 75.5078 114.668 75.5418 114.105 75.5509L114.137 77.5507ZM117.833 74.7609L118.22 73.7414L116.35 73.0321L115.963 74.0516L117.833 74.7609ZM118.227 73.0502L111.266 53.5736L109.383 54.2467L116.343 73.7233L118.227 73.0502ZM110.324 54.9102H115.07V52.9102H110.324V54.9102ZM114.114 54.2039L118.544 68.618L120.456 68.0305L116.026 53.6164L114.114 54.2039ZM119.5 69.3242H119.711V67.3242H119.5V69.3242ZM120.667 68.618L125.097 54.2039L123.185 53.6164L118.755 68.0305L120.667 68.618ZM124.141 54.9102H128.887V52.9102H124.141V54.9102ZM127.945 53.5731L120.281 74.9833L122.164 75.6573L129.828 54.2472L127.945 53.5731ZM120.281 74.9829C119.78 76.3827 119.1 77.4059 118.211 78.0857C117.332 78.7588 116.158 79.1639 114.538 79.1719L114.548 81.1719C116.514 81.1622 118.135 80.6621 119.427 79.6741C120.709 78.6928 121.576 77.2989 122.164 75.6577L120.281 74.9829ZM140.453 73H139.453V74H140.453V73ZM140.453 47.5469V46.5469H139.453V47.5469H140.453ZM158.98 55.9844L159.98 55.988L159.98 55.9808L158.98 55.9844ZM145.023 64.3867V63.3867H144.023V64.3867H145.023ZM145.023 73V74H146.023V73H145.023ZM145.023 60.625H144.023V61.625H145.023V60.625ZM149.312 60.625V61.625L149.318 61.625L149.312 60.625ZM145.023 51.3789V50.3789H144.023V51.3789H145.023ZM141.453 73V47.5469H139.453V73H141.453ZM140.453 48.5469H150.016V46.5469H140.453V48.5469ZM150.016 48.5469C152.728 48.5469 154.691 49.3674 155.975 50.6428C157.262 51.9203 157.972 53.757 157.98 55.988L159.98 55.9808C159.971 53.325 159.117 50.943 157.384 49.2234C155.65 47.5017 153.14 46.5469 150.016 46.5469V48.5469ZM157.98 55.9808C157.972 58.1986 157.256 60.0252 155.958 61.2972C154.661 62.5685 152.678 63.3867 149.945 63.3867V65.3867C153.084 65.3867 155.61 64.4383 157.358 62.7258C159.105 61.0138 159.971 58.6393 159.98 55.988L157.98 55.9808ZM149.945 63.3867H145.023V65.3867H149.945V63.3867ZM144.023 64.3867V73H146.023V64.3867H144.023ZM145.023 72H140.453V74H145.023V72ZM145.023 61.625H149.312V59.625H145.023V61.625ZM149.318 61.625C151.225 61.6153 152.756 61.0711 153.81 60.0118C154.861 58.9547 155.305 57.5169 155.305 55.9844H153.305C153.305 57.1413 152.975 58.0151 152.392 58.6014C151.81 59.1857 150.846 59.6172 149.307 59.625L149.318 61.625ZM155.305 55.9844C155.305 54.4372 154.863 52.9992 153.805 51.9499C152.747 50.9004 151.213 50.3789 149.312 50.3789V52.3789C150.858 52.3789 151.82 52.7979 152.396 53.3699C152.973 53.9422 153.305 54.8069 153.305 55.9844H155.305ZM149.312 50.3789H145.023V52.3789H149.312V50.3789ZM144.023 51.3789V60.625H146.023V51.3789H144.023ZM162.461 73H161.461V74H162.461V73ZM162.461 53.9102V52.9102H161.461V53.9102H162.461ZM166.961 53.9102H167.961V52.9102H166.961V53.9102ZM166.961 73V74H167.961V73H166.961ZM164.746 51.2031L164.734 52.203L164.746 52.2032L164.758 52.203L164.746 51.2031ZM163.461 73V53.9102H161.461V73H163.461ZM162.461 54.9102H166.961V52.9102H162.461V54.9102ZM165.961 53.9102V73H167.961V53.9102H165.961ZM166.961 72H162.461V74H166.961V72ZM163.145 48.7422C163.145 48.0254 163.805 47.3164 164.746 47.3164V45.3164C162.839 45.3164 161.145 46.7871 161.145 48.7422H163.145ZM164.746 47.3164C165.687 47.3164 166.348 48.0254 166.348 48.7422H168.348C168.348 46.7871 166.653 45.3164 164.746 45.3164V47.3164ZM166.348 48.7422C166.348 49.4796 165.681 50.1915 164.734 50.2032L164.758 52.203C166.658 52.1796 168.348 50.7118 168.348 48.7422H166.348ZM164.758 50.2032C163.811 50.1915 163.145 49.4796 163.145 48.7422H161.145C161.145 50.7118 162.834 52.1796 164.734 52.203L164.758 50.2032ZM188.195 64.7031V65.7031H189.195V64.7031H188.195ZM174.871 64.7031V63.7031H173.849L173.871 64.7247L174.871 64.7031ZM179.758 69.8711L179.767 68.8711L179.759 68.8711L179.752 68.8711L179.758 69.8711ZM183.625 67.9023V66.9023H183.011L182.733 67.4496L183.625 67.9023ZM188.02 67.9023L188.991 68.14L189.294 66.9023H188.02V67.9023ZM174.889 61.6445L173.891 61.5795L173.821 62.6445H174.889V61.6445ZM183.906 61.6445V62.6445H184.913L184.906 61.6378L183.906 61.6445ZM179.723 72.3867C177.079 72.3867 175.039 71.512 173.655 70.0389C172.265 68.5586 171.441 66.3715 171.441 63.5781H169.441C169.441 66.7613 170.385 69.4785 172.198 71.4083C174.018 73.3455 176.618 74.3867 179.723 74.3867V72.3867ZM171.441 63.5781C171.441 60.8254 172.275 58.6015 173.656 57.0779C175.029 55.5634 177.011 54.6641 179.477 54.6641V52.6641C176.493 52.6641 173.957 53.7686 172.175 55.7346C170.401 57.6914 169.441 60.4246 169.441 63.5781H171.441ZM179.477 54.6641C181.609 54.6641 183.516 55.331 184.888 56.6815C186.252 58.0252 187.195 60.1542 187.195 63.2969H189.195C189.195 59.7423 188.117 57.0549 186.291 55.2565C184.472 53.4649 182.02 52.6641 179.477 52.6641V54.6641ZM187.195 63.2969V64.7031H189.195V63.2969H187.195ZM188.195 63.7031H174.871V65.7031H188.195V63.7031ZM173.871 64.7247C173.911 66.5405 174.47 68.0971 175.531 69.2049C176.599 70.3199 178.082 70.8813 179.764 70.8711L179.752 68.8711C178.534 68.8785 177.608 68.4819 176.975 67.8214C176.336 67.1539 175.902 66.1177 175.871 64.6815L173.871 64.7247ZM179.749 70.8711C182.017 70.8913 183.731 69.9022 184.517 68.355L182.733 67.4496C182.359 68.1877 181.436 68.886 179.767 68.8711L179.749 70.8711ZM183.625 68.9023H188.02V66.9023H183.625V68.9023ZM187.048 67.6647C186.377 70.4092 183.819 72.3867 179.723 72.3867V74.3867C184.486 74.3867 188.045 72.0048 188.991 68.14L187.048 67.6647ZM174.889 62.6445H183.906V60.6445H174.889V62.6445ZM184.906 61.6378C184.896 60.1115 184.372 58.7324 183.412 57.7279C182.447 56.7187 181.095 56.1445 179.547 56.1445V58.1445C180.583 58.1445 181.402 58.5196 181.966 59.11C182.535 59.7051 182.899 60.576 182.906 61.6513L184.906 61.6378ZM179.547 56.1445C176.258 56.1445 174.078 58.7035 173.891 61.5795L175.887 61.7096C176.015 59.734 177.457 58.1445 179.547 58.1445V56.1445Z" fill="black" mask="url(#path-1-outside-1_102_29)"/>
<path fill-rule="evenodd" clip-rule="evenodd" d="M174.953 52.0779C174.333 49.9906 174 47.7833 174 45.5C174 32.5213 184.745 22 198 22C211.255 22 222 32.5213 222 45.5C222 58.4787 211.255 69 198 69C196.542 69 195.114 68.8726 193.727 68.6287L198.207 45.5306L174.953 52.0779Z" fill="#F6B22C" fill-opacity="0.51"/>
</svg>
